Coordinates
version=1
nRows=9
nColumns=24
inDegrees=yes

Units are S.I. units (second, meters, Newtons, ...)
Angles are in degrees.

endheader
time	pelvis_tilt	pelvis_list	pelvis_rotation	pelvis_tx	pelvis_ty	pelvis_tz	hip_flexion_r	hip_adduction_r	hip_rotation_r	knee_angle_r	ankle_angle_r	subtalar_angle_r	mtp_angle_r	hip_flexion_l	hip_adduction_l	hip_rotation_l	knee_angle_l	ankle_angle_l	subtalar_angle_l	mtp_angle_l	lumbar_extension	lumbar_bending	lumbar_rotation
      0.00000000	     -4.13351151	      0.90713041	      0.38114994	      0.46926813	      1.00461149	      1.44097789	    -13.25240995	     -2.49587563	     -4.74220921	    -24.20401619	      3.54669863	     15.99844723	    -57.11895102	     24.17954670	      0.14287922	      1.33461145	    -11.35388968	     -1.16973270	      6.53978071	    -35.34835462	     -6.12498737	     -2.46519433	      1.17918347
      0.01000000	     -4.16629237	      1.14209794	      0.44323390	      0.47037702	      1.00509687	      1.44017240	    -12.57276378	     -2.84902172	     -4.67241980	    -25.73592106	      1.93458681	     15.48866442	    -57.16081664	     23.93431408	      0.48713064	      1.44620224	    -11.86199557	     -0.95058028	      6.46980703	    -35.31004795	     -6.04270769	     -2.76417319	      1.11517685
      0.02000000	     -4.23213881	      1.42379535	      0.54664328	      0.47169300	      1.00576469	      1.43916998	    -11.63477675	     -3.24365115	     -4.50674279	    -27.69879616	     -0.11366772	     14.63838937	    -56.72794690	     23.60468895	      0.92167162	      1.65624926	    -12.42188041	     -0.61487234	      6.26479394	    -35.18814397	     -5.92025348	     -3.12208786	      1.02107545
      0.03000000	     -4.24365911	      1.71771311	      0.72395851	      0.47318360	      1.00671012	      1.43796052	    -10.57425638	     -3.67930070	     -4.44595003	    -29.95624718	     -2.90503396	     14.02077847	    -53.73128016	     23.09357685	      1.39693595	      1.85549263	    -12.96875858	     -0.19593433	      6.29151246	    -34.75075112	     -5.86043553	     -3.48544424	      0.87900765
      0.04000000	     -4.30025722	      1.98154343	      0.94528811	      0.47467561	      1.00782044	      1.43665386	     -9.26140605	     -4.06980157	     -4.32268473	    -32.47062443	     -5.58284826	     12.92595885	    -53.54370166	     22.53215376	      1.85227542	      2.02831121	    -13.48934762	      0.39745517	      6.42121062	    -34.65433418	     -5.75964649	     -3.80842593	      0.72068990
      0.05000000	     -4.30704701	      2.18537545	      1.18160201	      0.47615137	      1.00917830	      1.43535679	     -7.85699964	     -4.38919999	     -4.17344835	    -35.11052759	     -8.66405036	     12.06069917	    -50.02883177	     21.82434660	      2.20336754	      1.90311808	    -13.92777508	      1.05238215	      6.93927804	    -34.34943291	     -5.72166877	     -4.05721547	      0.56918745
      0.06000000	     -4.35554408	      2.33466169	      1.49936827	      0.47746307	      1.01066554	      1.43398638	     -6.27124736	     -4.64162450	     -4.09401556	    -37.83790472	    -11.36106541	     11.05722952	    -47.78173556	     21.02119651	      2.54467429	      2.09076978	    -14.13223936	      1.65866264	      7.14333293	    -34.15356754	     -5.65813324	     -4.22818669	      0.33722678
      0.07000000	     -4.40947812	      2.38366756	      1.85672199	      0.47861823	      1.01230804	      1.43268986	     -4.57630631	     -4.75436072	     -4.00048594	    -40.56331815	    -13.38803127	      9.92036275	    -47.55209745	     20.13687290	      2.75233189	      2.21931325	    -14.16678196	      2.26716461	      7.62197282	    -34.10006485	     -5.59934816	     -4.28024761	      0.05628750
      0.08000000	     -4.45469234	      2.34335488	      2.18975783	      0.47960843	      1.01407470	      1.43153149	     -2.79944586	     -4.78290529	     -3.92192385	    -43.25449841	    -15.06170039	      9.22261563	    -45.68043388	     19.24572732	      2.76418872	      1.80939181	    -14.17248969	      2.89793026	      8.84812426	    -34.07285781	     -5.55371165	     -4.22377473	     -0.20247799
